<svg xmlns="http://www.w3.org/2000/svg" viewBox="0 0 420 420"><defs><style>.cls-1{fill:none;stroke:#004225;stroke-miterlimit:10;stroke-width:9px;}.cls-10,.cls-11,.cls-12,.cls-13,.cls-14,.cls-2,.cls-3,.cls-4,.cls-5,.cls-6,.cls-7,.cls-8,.cls-9{isolation:isolate;font-family:BodoniSvtyTwoSCITCTT-Book, "Bodoni 72 Smallcaps";}.cls-2{font-size:72px;}.cls-10,.cls-11,.cls-12,.cls-13,.cls-14,.cls-15,.cls-2,.cls-3,.cls-4,.cls-5,.cls-6,.cls-7,.cls-8,.cls-9{fill:#004225;}.cls-3{font-size:72.22px;}.cls-4{font-size:24px;}.cls-5{font-size:23.97px;}.cls-6{font-size:24px;}.cls-7{font-size:23.96px;}.cls-8{font-size:24.08px;}.cls-9{font-size:24.1px;}.cls-10{font-size:24.03px;}.cls-11{font-size:24.04px;}.cls-12{font-size:24.06px;}.cls-13{font-size:23.94px;}.cls-14{font-size:23.91px;}.cls-16{fill:#f7f5f5;}</style></defs><title>green_logo02</title><g id="Layer_1" data-name="Layer 1"><circle class="cls-1" cx="210" cy="210" r="205.5"/><text class="cls-2" transform="translate(94.56 121.49) rotate(-41.03)">S</text><text class="cls-2" transform="matrix(0.86, -0.51, 0.51, 0.86, 119.99, 99.42)">t</text><text class="cls-3" transform="matrix(0.94, -0.35, 0.35, 0.94, 144.46, 84.81)">y</text><text class="cls-2" transform="translate(172.06 74.46) rotate(-10.44)">l</text><text class="cls-2" transform="translate(199.48 69.26) rotate(-0.93)">e</text><text class="cls-2" transform="translate(227.23 68.13) rotate(10.26)">m</text><text class="cls-2" transform="translate(263.93 74.94) rotate(21.78)">a</text><text class="cls-2" transform="translate(291.35 85.56) rotate(32.38)">n</text><text class="cls-2" transform="matrix(0.73, 0.69, -0.69, 0.73, 318.46, 102.5)">n</text><text class="cls-4" transform="matrix(0.51, 0.86, -0.86, 0.51, 56.68, 309.87)">a</text><text class="cls-5" transform="matrix(0.57, 0.82, -0.82, 0.57, 62.34, 319.59)">m</text><text class="cls-4" transform="translate(70.3 331.05) rotate(51.42)">a</text><text class="cls-4" transform="translate(77.28 339.78) rotate(47.66)">g</text><text class="cls-4" transform="matrix(0.72, 0.69, -0.69, 0.72, 85.3, 348.52)">e</text><text class="cls-6" transform="translate(92.94 355.88) rotate(40.54)">r</text><text class="cls-4" transform="matrix(0.8, 0.6, -0.6, 0.8, 101.44, 363.09)">b</text><text class="cls-4" transform="translate(110 369.5) rotate(33.32)">r</text><text class="cls-7" transform="translate(119.33 375.64) rotate(29.39)">o</text><text class="cls-4" transform="translate(130.53 381.9) rotate(25.32)">g</text><text class="cls-4" transform="matrix(0.93, 0.37, -0.37, 0.93, 141.28, 386.95)">a</text><text class="cls-4" transform="translate(151.75 391.09) rotate(17.5)">d</text><text class="cls-4" transform="matrix(0.97, 0.23, -0.23, 0.97, 164.21, 394.95)">e</text><text class="cls-4" transform="translate(179.24 398.35) rotate(8.28)">8</text><text class="cls-8" transform="matrix(1, 0.08, -0.08, 1, 191.15, 400.05)">5</text><text class="cls-4" transform="translate(207.47 401.06) rotate(-0.93)">-</text><text class="cls-9" transform="translate(219.98 400.82) rotate(-5.14)">2</text><text class="cls-10" transform="translate(231.88 399.76) rotate(-8.62)">3</text><text class="cls-4" transform="translate(243.27 398.02) rotate(-13.02)">0</text><text class="cls-4" transform="translate(257.1 394.78) rotate(-17.71)">0</text><text class="cls-8" transform="translate(275.01 388.71) rotate(-23.5)">k</text><text class="cls-4" transform="translate(286.35 383.72) rotate(-27.83)">ø</text><text class="cls-11" transform="translate(297.65 377.69) rotate(-31.94)">b</text><text class="cls-4" transform="translate(306.7 372.08) rotate(-35.17)">e</text><text class="cls-12" transform="translate(315.42 365.94) rotate(-38.93)">n</text><text class="cls-4" transform="matrix(0.73, -0.68, 0.68, 0.73, 324.87, 358.31)">h</text><text class="cls-13" transform="matrix(0.68, -0.73, 0.73, 0.68, 334.33, 349.42)">a</text><text class="cls-4" transform="translate(341.95 341.24) rotate(-50.64)">v</text><text class="cls-14" transform="translate(349.34 332.21) rotate(-54.4)">n</text><text class="cls-4" transform="matrix(0.51, -0.86, 0.86, 0.51, 358.82, 318.4)">s</text></g><g id="Layer_2" data-name="Layer 2"><path class="cls-15" d="M185.07,93.76l-4.89,11-47.65,19.55s-17.72,197.33-15.28,199.77H138l18.32-107.52L162.46,241l-20.77,83.09,59.87,24.44,8.56-45.21,9.77,45.21,58.65-24.44L259,239.77l4.89-23.21,18.33,107.52H303s-12.22-200.39-14.66-199.16l-48.88-20.78-4.89-9.77L210.12,227.55Z" transform="translate(0 0)"/><polygon class="cls-15" points="218.67 104.14 201.56 104.14 207.67 116.36 196.68 128.58 210.12 203.12 223.56 127.36 213.78 116.36 218.67 104.14"/><path class="cls-16" d="M244.33,170.13l18.33-2.45v-8.55s-4.89-4.89-6.11-4.89S244.33,170.13,244.33,170.13Z" transform="translate(0 0)"/></g></svg>
