<svg id="Layer_1" data-name="Layer 1" xmlns="http://www.w3.org/2000/svg" viewBox="0 0 90.27 106.58"><defs><style>.cls-1{fill:#004225;}.cls-2{fill:#fff;}.cls-3{fill:#f9f8f7;}</style></defs><title>green_icon_ex</title><path class="cls-1" d="M36.32,145.05l88.25-1.87V222.7s-36,26.14-41.53,25-44.86-22.78-44.86-22.78Z" transform="translate(-35.3 -142.16)"/><path class="cls-2" d="M83.33,248.74a2.33,2.33,0,0,1-.48,0c-5.65-1.14-43.55-22-45.16-22.88l-.5-.28L35.3,144.07l90.27-1.91v81.05l-.41.3C119.25,227.81,90.09,248.74,83.33,248.74Zm-44.17-24.4c13.7,7.54,39.85,21.55,44.08,22.4,3.71.75,26.52-14.53,40.33-24.55v-78L37.35,146Z" transform="translate(-35.3 -142.16)"/><path class="cls-1" d="M40.06,149.63l80.78-1.7v72.3S87.91,244,82.82,243s-41.07-20.71-41.07-20.71Z" transform="translate(-35.3 -142.16)"/><path class="cls-2" d="M83.13,243.5a2.59,2.59,0,0,1-.41,0c-5.1-1-39.73-20-41.21-20.76l-.25-.13-1.72-73.43,81.8-1.72v73.06l-.21.15C117.82,223,89.27,243.5,83.13,243.5ZM42.25,222c3.22,1.76,35.93,19.57,40.67,20.52,4,.8,28.15-15.83,37.42-22.51V148.44l-79.77,1.68Z" transform="translate(-35.3 -142.16)"/><path class="cls-3" d="M99.74,203.67A16.12,16.12,0,0,1,94.24,216,18.82,18.82,0,0,1,81,221.07a27.78,27.78,0,0,1-10.84-2.78,7,7,0,0,0-2.52-.75c-.68,0-1.1.77-1.26,2.32-.06.81-.42,1.21-1.1,1.21s-.84-.34-.84-1a4.23,4.23,0,0,1,.09-1,72.88,72.88,0,0,0,.67-9.49c0-.56-.06-2.13-.17-4.71a9.4,9.4,0,0,1-.08-1.34c0-.84.33-1.26,1-1.26s1,.67,1.17,2q2.19,15.1,14.2,15.11,5.13,0,7.94-2.9c1.88-1.93,2.82-4.67,2.82-8.19a12.25,12.25,0,0,0-2.73-8Q86.64,197,80,193.68q-8-4-11.09-7.65a13.72,13.72,0,0,1-3.11-9.16,15.69,15.69,0,0,1,4.49-11.51,15.34,15.34,0,0,1,11.39-4.54,24.13,24.13,0,0,1,7.9,1.93,8.29,8.29,0,0,0,2.6.68,1.64,1.64,0,0,0,1.22-.34,4.29,4.29,0,0,0,.55-1.76.89.89,0,0,1,.92-.84c.56,0,.84.33.84,1a4.9,4.9,0,0,1-.08,1,39.86,39.86,0,0,0-.25,4.88,38.29,38.29,0,0,0,.41,6.38l.09,1.35c.05.61-.2.92-.76.92s-1-.64-1.26-1.93a14.92,14.92,0,0,0-4.37-8.28,10.87,10.87,0,0,0-7.73-3.32,8.65,8.65,0,0,0-6.68,2.69,10.38,10.38,0,0,0-2.48,7.31,11.14,11.14,0,0,0,3.62,8.66q2,1.84,8.74,5.21,7.89,3.94,11.34,8A14,14,0,0,1,99.74,203.67Z" transform="translate(-35.3 -142.16)"/></svg>
