<svg xmlns="http://www.w3.org/2000/svg" viewBox="0 0 420 420"><defs><style>.cls-1{fill:#004225;}.cls-2{isolation:isolate;}.cls-3{fill:#f7f5f5;}</style></defs><title>green_logo_expand</title><g id="Layer_1" data-name="Layer 1"><path class="cls-1" d="M210,420C94.21,420,0,325.79,0,210S94.21,0,210,0,420,94.21,420,210,325.79,420,210,420ZM210,9C99.17,9,9,99.17,9,210S99.17,411,210,411s201-90.17,201-201S320.83,9,210,9Z" transform="translate(0 0)"/><g class="cls-2"><path class="cls-1" d="M110.81,88.8a13.78,13.78,0,0,1,3.37,11,16.09,16.09,0,0,1-5.69,10.73,23.89,23.89,0,0,1-8.57,4.31,5.93,5.93,0,0,0-2,.92c-.44.38-.27,1.12.49,2.22.41.55.4,1,0,1.39s-.73.26-1.11-.18a3.79,3.79,0,0,1-.51-.7A63.41,63.41,0,0,0,91.8,112c-.32-.37-1.23-1.35-2.76-3a9,9,0,0,1-.81-.82c-.47-.55-.49-1,0-1.39s1-.09,1.9.66q9.92,8.53,17.68,1.78a9.08,9.08,0,0,0,3.5-6.34q.19-3.47-2.79-6.88a10.42,10.42,0,0,0-6.28-3.65q-3.63-.61-9.76,1Q85,95.38,81,94.74a11.82,11.82,0,0,1-7.17-4.17,13.49,13.49,0,0,1-3.57-10A13.17,13.17,0,0,1,75,71.26a20.41,20.41,0,0,1,6.19-3.19,7.27,7.27,0,0,0,2.07-1c.39-.34.59-.64.59-.9a3.74,3.74,0,0,0-.63-1.45.75.75,0,0,1,.12-1.06q.54-.46,1.11.18a3.79,3.79,0,0,1,.51.7,35.33,35.33,0,0,0,2.58,3.29,31.32,31.32,0,0,0,3.87,3.89l.81.83q.57.54,0,1c-.4.35-1,.17-1.9-.54A12.82,12.82,0,0,0,82.9,70.1,9.32,9.32,0,0,0,76,72.3a7.39,7.39,0,0,0-2.8,5.49,8.85,8.85,0,0,0,2.51,6.12,9.52,9.52,0,0,0,7.2,3.57,38.09,38.09,0,0,0,8.58-1.55q7.32-1.89,11.85-1.2A12,12,0,0,1,110.81,88.8Z" transform="translate(0 0)"/></g><g class="cls-2"><path class="cls-1" d="M133.38,63.7c.33.56.25,1-.25,1.29s-1,.1-1.54-.64a11.2,11.2,0,0,0-3.41-3.4c-1.63-1-3.86-.65-6.67,1-.42.25-1.05.64-1.89,1.2l14.64,25c.46.79,1.31.85,2.53.19s1.92-.85,2.09-.56-.09.64-.8,1.05l-.43.26-1.74,1-1.68,1-1.43.84-3.35,2-1.49.87c-.83.49-1.33.58-1.5.29s.42-.85,1.76-1.7a3,3,0,0,0,.92-.7.82.82,0,0,0,.17-1c-.16-.37-.75-1.43-1.78-3.18l-13.1-22.34q-4.89,2.77-5.73,4.68t.93,6.07q.65,1.53,0,1.89c-.38.22-.84-.14-1.39-1.08-.69-1.18-1.87-3.62-3.53-7.3l14.47-8.49q1.92-1.12,7.77-4.69a6.94,6.94,0,0,0,1.18-1l.81,1.24,1.47,2.08L132.12,62l.77,1A7.73,7.73,0,0,1,133.38,63.7Z" transform="translate(0 0)"/></g><g class="cls-2"><path class="cls-1" d="M163.4,43.28c.1.27-.13.54-.7.8A6.61,6.61,0,0,0,160,45.94c-.29.53-.64,2.66-1,6.41q-.51,5-1.28,9.41a9.9,9.9,0,0,0-.23,2.48,15.61,15.61,0,0,0,.8,2.55l3.12,8.39c.34.9.67,1.38,1,1.44a10.11,10.11,0,0,0,2.92-.66c.82-.26,1.3-.23,1.41.09s-.13.59-.77.82l-.4.16-1.42.52-1.76.66-2,.73-2,.73-1,.39L154,81.31l-.68.25q-.87.33-1.05-.15T154,80.06c1.31-.54,2-1,2.15-1.26a5.32,5.32,0,0,0-.58-2.48l-3.35-9q-.7-.66-2.1-1.92l-7.75-6.52-2.75-2.44c-.69-.61-1.49-1.29-2.38-2-.58-.3-1.8-.13-3.66.52-.59.21-.94.16-1.06-.15s.09-.65.68-.87l1.28-.48,2.85-1.06,2.1-.78,6-2.24.74-.28c.68-.25,1.08-.2,1.22.16s-.41.7-1.58,1.13c-1.81.68-2.6,1.31-2.38,1.89s4.3,4.26,12.11,10.6q2.11-15.44,1.87-16.11t-1.38-.18l-1.22.45-.61.23c-.77.28-1.22.25-1.35-.11s.2-.62,1-.91l2.64-1,1.62-.6Q163.13,42.53,163.4,43.28Z" transform="translate(0 0)"/></g><g class="cls-2"><path class="cls-1" d="M199.71,62.8q.73,4,1.08,6.68a5.72,5.72,0,0,1-1,.26s-.42.05-1.11.1S197,70,196,70.22l-3.33.62-12.13,2.09L174.68,74c-.61.11-1,0-1-.3s.83-.63,2.65-1.1c.51-.15.81-.32.89-.54a4,4,0,0,0-.11-1.59l-4.38-23.78c-.49-2.64-1-4-1.41-4.06a3.33,3.33,0,0,0-1.27.08,6.64,6.64,0,0,1-1.25.16c-.52.09-.81,0-.88-.42s.21-.56.83-.67L178.57,40l1.64-.3c.9-.17,1.39-.05,1.46.34s-.7.57-2.25.9c-.74.19-1.16.43-1.25.75a11.53,11.53,0,0,0,.35,3.09l4.85,26.33c1.89-.3,3.26-.53,4.1-.68q7.62-1.41,9.24-3.24c.89-1,1.23-2.82,1-5.47-.12-1.15,0-1.76.46-1.84C198.83,59.74,199.33,60.72,199.71,62.8Z" transform="translate(0 0)"/></g><g class="cls-2"><path class="cls-1" d="M228.3,61.07s0,.36-.09.92a14.24,14.24,0,0,0-.09,1.5l.07,4.17a5.69,5.69,0,0,0,.24,1.44l-12,0-13.75.44c-1,0-1.53-.17-1.53-.55s.28-.66.85-.67a6.06,6.06,0,0,0,2.7-.36c.26-.22.38-1,.35-2.35l-.4-24.76c0-2-.22-3-.55-3.13a10.56,10.56,0,0,0-2.53-.14c-.57,0-.86-.15-.87-.49s.3-.58.93-.59l1.73,0,1.44,0h.79l1.8,0,3.6-.06,7.92-.13,4.24-.07,3.1-.05v.5l.09,1.06q.15,1.06.68,6.38a4.09,4.09,0,0,1,.08.85q0,.91-.48.93c-.44,0-.75-.47-1-1.43-.73-3.63-2-5.75-3.9-6.34q-1.59-.48-7.47-.39l-3.65.06.22,13.47,1.71,0c3.05,0,4.92-.33,5.63-.85s1.16-1.9,1.36-4.16c.12-1.35.4-2,.83-2s.73.47.75,1.43c0,.57,0,1.46-.07,2.66s-.07,2.12-.06,2.74q.08,4.68.26,6.4a7.54,7.54,0,0,1,.07.94c0,.77-.22,1.15-.69,1.16s-.72-.58-.88-1.78c-.33-2.59-.82-4.13-1.5-4.62s-2.54-.72-5.62-.67l-1.77,0,.25,15.55q10.53-.24,12.39-.78c1.9-.56,3-2.88,3.25-7,0-.72.3-1.09.78-1.09S228.28,59.75,228.3,61.07Z" transform="translate(0 0)"/></g><g class="cls-2"><path class="cls-1" d="M265.61,74.61c-.07.38-.53.49-1.38.34l-.7-.13-3.19-.58-2.48-.45-2.77-.5L252,72.73l-.36-.06c-.85-.16-1.24-.4-1.18-.73a.34.34,0,0,1,.38-.31,22.72,22.72,0,0,1,2.4.3c1,.13,1.6.1,1.81-.11a7.38,7.38,0,0,0,.73-2.59l4.14-22.87q-1.92,3.31-6.23,11-2.52,4.59-6.39,11.86c-.74,1.38-1.25,2-1.53,2s-.67-.77-.86-2.13q-.75-5.18-5.18-26l-4.4,24.3a1.05,1.05,0,0,0,.51,1.26c.65.17,1.5.35,2.53.53.62.11.9.34.84.67s-.58.48-1.52.31l-1-.18-1.48-.27-4-.73-1.56-.28c-.71-.13-1-.38-1-.76s.85-.38,2.37-.16c1,.14,1.67.12,1.88-.06a5.75,5.75,0,0,0,.66-2.26l4.35-24c.29-1.6.31-2.57.05-2.91s-1.25-.69-3-1.06c-.62-.11-.89-.35-.82-.73s.48-.38,1.29-.28,3.65.59,8.52,1.47l.14.83c.14.56.32,1.35.52,2.36l.93,4.56q.39,1.91,1.33,6.39l2.06,10c1.13-2.13,2-3.71,2.56-4.72L260.74,41l5.38,1,3.11.56c1.24.17,1.82.49,1.73.93s-.55.48-1.45.36a22,22,0,0,0-2.22-.25A1.5,1.5,0,0,0,266,44.91l-4.52,25c-.35,1.89-.36,2.93-.06,3.13a13.4,13.4,0,0,0,3.22.8C265.36,74,265.68,74.24,265.61,74.61Z" transform="translate(0 0)"/></g><g class="cls-2"><path class="cls-1" d="M295.42,87.12c-.1.26-.6.22-1.5-.14l-.46-.18-4.15-1.66-1.87-.75-3.14-1.25-2-.8-1.2-.48-.34-.14c-.8-.32-1.13-.66-1-1s1-.23,2.65.36c1.93.72,3,.89,3.14.49a10.46,10.46,0,0,0,.1-1.42q.08-.58.24-5.07l.1-2.58-9.56-3.82q-5.49,5.79-5.92,6.86-.24.61.54,1l.84.42,1,.4.52.44c.54.21.75.46.64.73s-.65.27-1.59-.1c-.13,0-.91-.4-2.33-1s-2.69-1.19-3.8-1.64l-.61-.24-.64-.14-.77-.19-.14-.05c-.71-.29-1-.57-.91-.83s.49-.38,1.09-.19c.82.27,1.37.44,1.65.5a2.74,2.74,0,0,0,1.72,0q.48,0,6.33-6.33,2.34-2.56,4.45-4.75a12.91,12.91,0,0,0,1.1-1.2,14.62,14.62,0,0,1,1.1-1.19q2.24-2.3,6.53-7l2.13-2.4.94-1c.54-.57.94-.79,1.21-.69s.17.8.12,2.22q0,5.68.05,29.95c0,1.6.2,2.54.65,2.82.12.1.81.45,2.06,1.06C295.22,86.39,295.57,86.76,295.42,87.12ZM286,71.2l.27-13.15q-3.22,3.36-9,9.64Z" transform="translate(0 0)"/></g><g class="cls-2"><path class="cls-1" d="M336.63,76c-.18.28-.71.14-1.6-.43-.13-.07-.41-.25-.86-.54l-.66-.42c-.37-.23-.63-.28-.8-.16a9,9,0,0,0-1.13,1.59L317.36,98.5c-.93,1.46-1.49,2.3-1.69,2.52s-.45.23-.78,0-.81-2.9-1.08-7.84c0-.63-.06-1.52-.17-2.68,0-.17,0-.61-.09-1.33q-.48-6-1.39-22.15L299.93,86.33c-1,1.51-1.25,2.44-.88,2.79a17.81,17.81,0,0,0,2.27,1.61l.24.15c.48.31.64.6.48.86s-.74.17-1.63-.39c-.16-.11-.8-.57-1.93-1.4-.58-.42-1.11-.79-1.6-1.1s-.83-.49-1.26-.71a27.84,27.84,0,0,1-2.57-1.46c-.65-.41-.87-.77-.68-1.07s.64-.15,1.41.34l.54.34.83.44c1,.54,1.65.68,1.87.41a13.82,13.82,0,0,0,1.19-1.73l10.68-16.84c1.94-3.06,2.92-5,2.94-5.86,0-1.12-.66-2.14-2.08-3-1-.64-1.41-1.13-1.19-1.47s.51-.23,1,.1l.25.15,3.34,2.12.79.5,1.09.7,2.25,1.43,1.83,28.85,10.71-16.9a7.67,7.67,0,0,0,1-1.84c0-.21-.25-.5-.82-.86l-1.28-.81-.36-.23c-.77-.49-1.06-.88-.87-1.19s.38-.18.79,0,1.79,1,4.14,2.55,3.52,2.25,3.86,2.52S336.77,75.82,336.63,76Z" transform="translate(0 0)"/></g><g class="cls-2"><path class="cls-1" d="M364.71,101.79q-.36.36-1.5-.72l-.74-.69-.57-.55c-.32-.29-.57-.4-.75-.31a8.74,8.74,0,0,0-1.42,1.35l-18.21,19.31c-1.19,1.26-1.91,2-2.14,2.16s-.49.13-.77-.13-.24-3,.42-7.91c.12-.61.24-1.5.35-2.66,0-.17.08-.61.16-1.32q.66-6,2.84-22l-15.67,16.61c-1.23,1.3-1.69,2.16-1.39,2.57a16.74,16.74,0,0,0,1.92,2l.21.2q.63.6.3.93c-.24.27-.75,0-1.52-.69-.14-.13-.68-.71-1.63-1.74-.49-.52-.94-1-1.36-1.38s-.72-.64-1.1-.94A28.45,28.45,0,0,1,319.9,104c-.56-.53-.72-.92-.47-1.18s.65,0,1.31.6l.48.44.73.59c.9.72,1.49,1,1.76.76a17.23,17.23,0,0,0,1.49-1.48l13.68-14.5q3.74-4,4-5.2c.24-1.09-.25-2.22-1.47-3.37-.87-.83-1.17-1.39-.89-1.68s.55-.13,1,.3l.2.2,2.88,2.71.69.65.94.89,1.94,1.82-3.7,28.68,13.73-14.56A7.61,7.61,0,0,0,359.55,98c.06-.21-.15-.54-.64-1l-1.1-1-.31-.3c-.67-.62-.88-1.07-.63-1.33s.41-.1.78.18,1.55,1.37,3.58,3.29,3,2.88,3.31,3.2S364.88,101.61,364.71,101.79Z" transform="translate(0 0)"/></g><g class="cls-2"><path class="cls-1" d="M62.48,319.47c-.08,0-.2-.06-.37-.34L62,319l-.75-1.28-.34-.58-.57-1-.37-.62-.21-.37-.06-.11c-.15-.25-.17-.4-.06-.47s.32.15.62.64.61.84.73.77a2.63,2.63,0,0,0,.32-.35c.09-.09.46-.52,1.1-1.28l.55-.66-1.73-3a15,15,0,0,0-3,.59c-.13.07-.15.2-.06.37l.13.28.18.31.05.22c.1.17.1.28,0,.33s-.23-.06-.4-.36l-.4-.75c-.24-.46-.46-.86-.66-1.21l-.11-.18-.14-.17-.17-.21,0,0c-.13-.22-.15-.36-.07-.41s.21,0,.32.17a4.38,4.38,0,0,0,.34.48.9.9,0,0,0,.45.34,16.19,16.19,0,0,0,3-.37c.76-.13,1.48-.24,2.15-.33.24,0,.42-.07.53-.09a4.29,4.29,0,0,1,.53-.09c.71-.1,1.76-.27,3.16-.52l1-.19.46-.08c.25,0,.41,0,.45.07s-.11.24-.42.61q-1.14,1.5-6.11,7.89c-.34.41-.47.71-.41.87a6.14,6.14,0,0,0,.33.7C62.58,319.24,62.59,319.41,62.48,319.47Zm.79-6.1L66,310q-1.53.23-4.35.69Z" transform="translate(0 0)"/></g><g class="cls-2"><path class="cls-1" d="M69.87,330.15c-.11.08-.24,0-.41-.24,0,0,0,0-.13-.2l-.62-.89-.48-.68c-.13-.2-.31-.46-.53-.77l-.6-.87-.07-.1c-.17-.23-.2-.38-.11-.45a.11.11,0,0,1,.16,0,6.4,6.4,0,0,1,.5.64c.2.26.35.4.45.4a2.48,2.48,0,0,0,.78-.44l6.35-4.42-4,1.12c-1.11.32-2.54.76-4.29,1.29-.5.15-.78.19-.83.11s0-.34.3-.7q1-1.41,4.88-7.34l-6.75,4.69a.36.36,0,0,0-.18.42c.12.19.27.43.48.72s.13.29,0,.35-.24,0-.43-.28l-.19-.28-.29-.41-.78-1.12-.3-.44c-.13-.19-.15-.33,0-.4s.29.11.59.52.37.42.46.43a2,2,0,0,0,.69-.38l6.67-4.64c.44-.31.68-.53.7-.67a2.33,2.33,0,0,0-.46-.95c-.12-.17-.13-.3,0-.37s.2,0,.37.24.72,1,1.66,2.35l-.16.23-.43.68-.86,1.29-1.19,1.82-1.85,2.83,1.71-.52,6-1.67,1,1.5.6.86c.25.34.32.54.19.63s-.24,0-.43-.26-.4-.52-.46-.58a.49.49,0,0,0-.62,0l-7,4.83c-.52.36-.78.6-.75.72a4,4,0,0,0,.57.95C70,329.94,70,330.08,69.87,330.15Z" transform="translate(0 0)"/></g><g class="cls-2"><path class="cls-1" d="M77.41,339.8c-.08.06-.21,0-.41-.29l-.11-.13L76,338.22l-.42-.53-.7-.88-.45-.56-.27-.34-.07-.09c-.18-.23-.22-.38-.12-.46s.33.1.71.54.71.75.82.66a2.24,2.24,0,0,0,.27-.4c.08-.1.38-.58.9-1.42l.46-.73L75,331.32a16.16,16.16,0,0,0-2.85,1c-.11.09-.11.22,0,.38l.18.26.22.28.08.21c.12.15.14.26.07.32s-.24,0-.45-.29l-.5-.69c-.31-.42-.58-.79-.83-1.1l-.14-.17-.16-.15-.19-.18,0,0c-.16-.2-.2-.33-.13-.39s.2,0,.35.13l.39.42a.91.91,0,0,0,.5.27,15.44,15.44,0,0,0,2.88-.79c.73-.23,1.42-.45,2.07-.64a5,5,0,0,0,.52-.16,4.21,4.21,0,0,1,.51-.17c.69-.2,1.7-.52,3-1l1-.34.44-.14c.25-.08.4-.08.46,0s-.08.25-.33.66q-.93,1.65-4.92,8.68c-.27.46-.36.77-.28.93s.16.26.42.65S77.51,339.72,77.41,339.8Zm-.09-6.16,2.24-3.77c-1,.3-2.4.73-4.21,1.31Z" transform="translate(0 0)"/></g><g class="cls-2"><path class="cls-1" d="M87.52,346.09c-.06.05-.19,0-.39-.23l-.52-.57a.29.29,0,0,0-.28,0,3.37,3.37,0,0,0-.68.53l-.71.65a5.65,5.65,0,0,1-3.42-1.82,5.82,5.82,0,0,1-1.72-4.12,5.24,5.24,0,0,1,1.9-3.83A5.72,5.72,0,0,1,85.81,335a5.3,5.3,0,0,1,3.89,1.9,5.87,5.87,0,0,1,1.27,2.6.46.46,0,0,0,.09.21c.09.1.22.09.41,0s.46-.14.55-.05a.18.18,0,0,1,0,.28l-.33.23c-.38.28-1.07.88-2.09,1.81-.27.25-.47.3-.6.16s-.08-.22.07-.35a3.8,3.8,0,0,0,1.24-2.32,2.73,2.73,0,0,0-.76-2.21,2.81,2.81,0,0,0-2.76-.9,7.31,7.31,0,0,0-3.52,2,6.76,6.76,0,0,0-2.17,3.23,2.87,2.87,0,0,0,.66,2.79c.65.71,1.27.95,1.87.71a3.15,3.15,0,0,0,.82-.59c.42-.38.63-.63.64-.73s-.17-.35-.53-.74l-.11-.12-.15-.16c-.09-.09-.09-.18,0-.25s.28,0,.54.29l.42.46.35.39.24.27,1.3,1.42.29.32C87.59,345.84,87.63,346,87.52,346.09Z" transform="translate(0 0)"/></g><g class="cls-2"><path class="cls-1" d="M94.05,353.33a2.11,2.11,0,0,1-.24.2,4.44,4.44,0,0,0-.37.33l-1,1a1.78,1.78,0,0,0-.28.39l-2.83-2.83L86,349.29c-.24-.23-.32-.39-.23-.49s.22-.08.36.05c.36.36.6.54.72.55s.32-.15.64-.47L93.23,343c.45-.48.66-.77.6-.87a3.16,3.16,0,0,0-.56-.63c-.14-.13-.17-.24-.09-.32s.21-.06.36.08l.41.4.35.33.19.19.43.41.86.84,1.9,1.83,1,1,.74.72-.11.12-.23.27c-.14.19-.59.75-1.34,1.67a1.46,1.46,0,0,1-.18.22c-.14.15-.25.18-.33.1s-.07-.28.11-.56c.68-1,.87-1.83.57-2.41a10.89,10.89,0,0,0-1.67-1.85l-.88-.85-3.12,3.23.41.4a4.07,4.07,0,0,0,1.53,1.12c.29,0,.72-.17,1.3-.66.35-.29.57-.38.68-.28s.06.28-.16.51-.35.34-.65.61l-.66.63c-.72.75-1.2,1.28-1.44,1.58l-.2.24c-.18.18-.33.22-.44.11s0-.31.21-.63c.53-.69.78-1.17.74-1.45a4.28,4.28,0,0,0-1.17-1.48l-.43-.41-3.6,3.73a26.29,26.29,0,0,0,3.11,2.74c.58.31,1.38,0,2.4-.88.18-.16.33-.19.44-.08S94.35,353,94.05,353.33Z" transform="translate(0 0)"/></g><g class="cls-2"><path class="cls-1" d="M101.37,362.35c-.34.38-.84.29-1.52-.29a2.56,2.56,0,0,1-1-2.11,2.36,2.36,0,0,1,.19-1,17.4,17.4,0,0,1,1.11-1.73,2,2,0,0,0,.43-1.52,3.42,3.42,0,0,0-1.12-1.55l-3.21,3.76c-.18.14,0,.49.7,1q.2.16.09.3c-.08.08-.2.05-.37-.1l-.38-.32-.64-.55-1-.83-.6-.51-.35-.3c-.34-.29-.47-.47-.4-.55s.17-.09.29,0l.19.15.07.07q.61.52.84.27l6.16-7.2c.11-.14.16-.25.13-.35a1.61,1.61,0,0,0-.48-.52q-.42-.37-.3-.51t.36.09l.13.11,1.73,1.48,1,.84.6.52a4.48,4.48,0,0,1,1.53,2.17,2,2,0,0,1-.38,1.95,2.23,2.23,0,0,1-2,.77,5.55,5.55,0,0,1-2.76-1.24,4.27,4.27,0,0,1,1.42,2.6,5.31,5.31,0,0,1-1.22,2.92c-.56.81-.66,1.38-.28,1.7.06.06.1.06.13,0a.64.64,0,0,0,.06-.16.49.49,0,0,1,.08-.19.41.41,0,0,1,.65,0A.46.46,0,0,1,101.37,362.35Zm2.16-8.37a1.89,1.89,0,0,0-.21-3,1.28,1.28,0,0,0-.59-.36c-.11,0-.26.1-.43.31l-2.55,3Q102,355.8,103.53,354Z" transform="translate(0 0)"/></g><g class="cls-2"><path class="cls-1" d="M110.64,366.42a2.33,2.33,0,0,1-1.74,1,4.14,4.14,0,0,1-2.33-.59,32.46,32.46,0,0,1-3-2.13l-1.17-.88,0,0-.27-.2c-.1-.05-.11-.13,0-.23s.11-.11.17-.08a3.23,3.23,0,0,1,.48.32c.26.2.42.28.5.26s.22-.17.42-.44l5.19-6.93a2.11,2.11,0,0,0,.39-.63c0-.08-.18-.27-.54-.56s-.36-.36-.3-.44.25,0,.54.16l.32.25c.14.1.51.4,1.11.88l.92.7c.87.67,1.41,1.11,1.63,1.31a4.39,4.39,0,0,1,.71.8,2.24,2.24,0,0,1,.07,2.79c-.87,1.16-2.29,1.18-4.24.06l0,.07a4.48,4.48,0,0,1,1.72,2.3A2.47,2.47,0,0,1,110.64,366.42ZM109.08,365c1-1.36.76-2.6-.77-3.75l-.4-.3L105,364.82c-.11.16-.15.27-.11.35a2,2,0,0,0,.51.46Q107.47,367.16,109.08,365Zm2.72-4.48c.63-.83.84-1.5.62-2a2.87,2.87,0,0,0-.94-1,5.89,5.89,0,0,0-.49-.34l-.17-.1-2.66,3.56a4.88,4.88,0,0,0,1.55.86A2,2,0,0,0,111.8,360.55Z" transform="translate(0 0)"/></g><g class="cls-2"><path class="cls-1" d="M119.27,374.83c-.28.42-.8.39-1.54-.1a2.59,2.59,0,0,1-1.22-2,2.22,2.22,0,0,1,.07-1,15.68,15.68,0,0,1,.87-1.86,2,2,0,0,0,.24-1.56,3.38,3.38,0,0,0-1.3-1.4l-2.71,4.13c-.17.17.11.48.82,1,.14.09.19.19.12.28s-.18.08-.37,0l-.42-.28-.7-.46-1.07-.7-.66-.44-.38-.25c-.37-.24-.53-.41-.47-.5s.16-.1.3,0l.2.13.08.05c.45.3.74.36.86.17l5.21-7.92a.39.39,0,0,0,.08-.37,1.77,1.77,0,0,0-.53-.45c-.32-.21-.44-.36-.37-.47s.19-.08.37,0l.14.1,1.91,1.25,1.08.71.66.44a4.47,4.47,0,0,1,1.8,2,2,2,0,0,1-.14,2,2.2,2.2,0,0,1-1.91,1,5.58,5.58,0,0,1-2.89-.88,4.28,4.28,0,0,1,1.74,2.4,5.46,5.46,0,0,1-.84,3.05c-.46.88-.49,1.45-.07,1.72.06.05.11.05.14,0a1.54,1.54,0,0,1,0-.16.43.43,0,0,1,.06-.2c.16-.25.37-.28.64-.11A.47.47,0,0,1,119.27,374.83Zm1.09-8.57a1.88,1.88,0,0,0-.59-3,1.33,1.33,0,0,0-.62-.29c-.12,0-.25.13-.39.36l-2.16,3.27Q119.06,368.26,120.36,366.26Z" transform="translate(0 0)"/></g><g class="cls-2"><path class="cls-1" d="M131.92,376.59a5.54,5.54,0,0,1-3.24,2.69,4.89,4.89,0,0,1-4-.4,5.26,5.26,0,0,1-2.61-3.35,6,6,0,0,1,3.88-7,5.19,5.19,0,0,1,4.16.55,4.89,4.89,0,0,1,2.48,3.28A5.7,5.7,0,0,1,131.92,376.59Zm-2-1a7.48,7.48,0,0,0,1.17-4.36,2.3,2.3,0,0,0-1.23-1.88,2.66,2.66,0,0,0-3.15.42,9.18,9.18,0,0,0-2.15,2.69,7.29,7.29,0,0,0-1.13,3.78,2.66,2.66,0,0,0,1.4,2.38Q127.4,380,129.92,375.55Z" transform="translate(0 0)"/></g><g class="cls-2"><path class="cls-1" d="M142.38,383.79q0,.1-.45-.06l-.69-.33a.28.28,0,0,0-.26.12,3.73,3.73,0,0,0-.42.76l-.41.87a5.69,5.69,0,0,1-3.85-.39,5.82,5.82,0,0,1-3.16-3.15,5.28,5.28,0,0,1,.29-4.27,5.8,5.8,0,0,1,3.17-3.13,5.28,5.28,0,0,1,4.31.28,5.79,5.79,0,0,1,2.17,1.93.34.34,0,0,0,.17.15c.11.06.24,0,.37-.16s.37-.31.49-.25a.18.18,0,0,1,.09.26,2.27,2.27,0,0,0-.22.34c-.24.4-.66,1.22-1.25,2.47-.15.33-.32.45-.49.37s-.16-.18-.07-.35a3.83,3.83,0,0,0,.27-2.62,2.74,2.74,0,0,0-1.55-1.75,2.82,2.82,0,0,0-2.89.22,7.25,7.25,0,0,0-2.51,3.16,6.76,6.76,0,0,0-.78,3.81,2.87,2.87,0,0,0,1.67,2.33c.87.41,1.54.39,2-.06a2.78,2.78,0,0,0,.53-.85,2.18,2.18,0,0,0,.32-.92,2.11,2.11,0,0,0-.77-.48l-.15-.07-.2-.09c-.11-.06-.15-.13-.1-.23s.26-.1.6.06l.57.27.48.23.32.15,1.74.82.39.19C142.35,383.53,142.44,383.66,142.38,383.79Z" transform="translate(0 0)"/></g><g class="cls-2"><path class="cls-1" d="M151.74,391c0,.09-.2.08-.5,0l-.15-.06-1.39-.55-.62-.24-1.05-.42-.67-.26-.4-.16-.12,0c-.26-.11-.38-.22-.33-.34s.34-.08.88.12,1,.29,1.05.16a4,4,0,0,0,0-.48c0-.13,0-.69.08-1.69l0-.86-3.2-1.26a15.82,15.82,0,0,0-2,2.3c0,.13,0,.25.18.33l.28.14.34.13.17.15q.27.1.21.24c0,.1-.21.09-.52,0l-.78-.35-1.27-.54-.21-.08-.21,0-.26-.07h0c-.24-.1-.34-.19-.31-.28s.16-.13.36-.06.46.14.56.16a.87.87,0,0,0,.57,0,17.63,17.63,0,0,0,2.1-2.12c.52-.57,1-1.1,1.48-1.59a3.42,3.42,0,0,0,.36-.4c.07-.09.19-.22.36-.4.5-.51,1.22-1.29,2.17-2.35l.71-.8.31-.35c.18-.18.31-.26.4-.22s.06.26,0,.74q0,1.89.07,10c0,.53.07.84.22.94s.27.15.69.35C151.67,390.75,151.79,390.88,151.74,391Zm-3.15-5.29.07-4.38q-1.07,1.13-3,3.23Z" transform="translate(0 0)"/></g><g class="cls-2"><path class="cls-1" d="M164.55,389.47a5.05,5.05,0,0,1-3.37,3.5,6.76,6.76,0,0,1-4.15-.15l-.54-.17-1.87-.59-.5-.16-.41-.13-.92-.29-.2-.06c-.26-.09-.37-.2-.32-.34s.15-.16.32-.09l.53.17c.3.11.5.08.58-.09a3.68,3.68,0,0,0,.3-.79l2.31-7.31a7.19,7.19,0,0,0,.32-1.18c0-.11-.3-.25-.75-.41-.28-.08-.4-.18-.37-.29s.2-.14.47,0l.21.06.82.26,1.54.49a17.79,17.79,0,0,1,4.14,1.71,4.63,4.63,0,0,1,1.89,2.55A5.51,5.51,0,0,1,164.55,389.47Zm-2.17-.78q1.5-4.74-2.34-5.94a3.12,3.12,0,0,0-1.32-.28c-.11,0-.24.32-.39.79l-2.55,8.08c-.09.28-.07.46,0,.57a3.27,3.27,0,0,0,1,.4C159.48,393.16,161.35,392,162.38,388.69Z" transform="translate(0 0)"/></g><g class="cls-2"><path class="cls-1" d="M174.19,394.66l-.1.29a4.38,4.38,0,0,0-.16.47l-.32,1.36a1.77,1.77,0,0,0-.05.48l-3.87-1-4.47-1q-.5-.12-.45-.3c0-.14.14-.19.33-.14a2,2,0,0,0,.9.1c.1,0,.21-.29.31-.72l1.94-8c.15-.64.18-1,.08-1.06a4.23,4.23,0,0,0-.8-.25c-.19,0-.27-.12-.24-.23s.14-.16.35-.11l.56.13.46.11.26.06.58.15,1.17.28,2.56.62,1.38.33,1,.24,0,.16-.06.35c0,.24-.13.95-.32,2.12a1,1,0,0,1,0,.28c0,.2-.13.29-.24.26s-.2-.21-.18-.54c.06-1.23-.18-2-.73-2.37a10.62,10.62,0,0,0-2.38-.75l-1.18-.29L169.39,390l.56.13a4.2,4.2,0,0,0,1.88.2c.27-.11.54-.52.79-1.23.15-.43.3-.62.44-.59s.19.21.12.52-.13.48-.24.86a8.94,8.94,0,0,0-.25.88c-.25,1-.4,1.7-.45,2.09q0,.18-.06.3c-.06.25-.17.36-.32.32s-.18-.25-.13-.65a2.6,2.6,0,0,0-.1-1.62,4.07,4.07,0,0,0-1.76-.68l-.57-.14-1.22,5a25,25,0,0,0,4.06.78c.66,0,1.21-.67,1.63-2,.07-.23.19-.33.34-.29S174.3,394.23,174.19,394.66Z" transform="translate(0 0)"/></g><g class="cls-2"><path class="cls-1" d="M190.53,395.89a4,4,0,0,1-1.85,2.87,5,5,0,0,1-3.62.75,5.89,5.89,0,0,1-3.57-1.75,3.67,3.67,0,0,1-1.08-3.17,3.92,3.92,0,0,1,2.21-3,6.5,6.5,0,0,1,2.79-.63v-.1c-2.47-.73-3.55-2.1-3.26-4.12a3.65,3.65,0,0,1,1.66-2.64,5.12,5.12,0,0,1,6.33.92,3.77,3.77,0,0,1,.82,3c-.26,1.77-1.62,2.8-4.09,3.07l0,.07a7,7,0,0,1,2.61,1.54A3.67,3.67,0,0,1,190.53,395.89Zm-2.15-.41a4.63,4.63,0,0,0-.36-2.91,2.55,2.55,0,0,0-2-1.33,2.46,2.46,0,0,0-2.23.86,4.89,4.89,0,0,0-1.26,2.78,4.1,4.1,0,0,0,.47,2.82,2.75,2.75,0,0,0,2.08,1.35,2.27,2.27,0,0,0,2.14-.75A5.17,5.17,0,0,0,188.38,395.48Zm.39-7.85c.34-2.33-.21-3.59-1.65-3.8a1.89,1.89,0,0,0-1.81.7,4.87,4.87,0,0,0-1,2.53c-.33,2.24.29,3.48,1.84,3.71S188.44,389.93,188.77,387.63Z" transform="translate(0 0)"/></g><g class="cls-2"><path class="cls-1" d="M201.62,401a4.9,4.9,0,0,1-2.59,4,6.54,6.54,0,0,1-3.92.92,4.16,4.16,0,0,1-2.33-.88,2,2,0,0,1-.87-1.7,1.22,1.22,0,0,1,.46-.89,1.29,1.29,0,0,1,1-.29,1.15,1.15,0,0,1,.81.36,1,1,0,0,1,.26.81,1,1,0,0,1-.19.56,3.7,3.7,0,0,1-.82.54.22.22,0,0,0-.16.18c0,.16.17.33.54.5a3.72,3.72,0,0,0,4.15-.74,5.11,5.11,0,0,0,1.34-3.29,4.73,4.73,0,0,0-.76-3.17,3.08,3.08,0,0,0-2.39-1.45,4.74,4.74,0,0,0-2.71.85l.11-.7c0-.15.19-1.64.48-4.45a5.08,5.08,0,0,1,.44-2c.16-.2.67-.26,1.52-.19s1.68.15,2.49.24l1.27.13a1,1,0,0,0,.63-.1,1.15,1.15,0,0,0,.28-.63c0-.22.15-.32.31-.31s.21.12.19.33a2,2,0,0,1-.08.48l-.06.72a2.15,2.15,0,0,1-.44,1.27,1.4,1.4,0,0,1-1.11.27q-1-.07-2.13-.27l-1.15-.09c-.26,0-.77-.05-1.54-.07l0,.26-.15.95c0,.23-.15,1.33-.34,3.31a6.36,6.36,0,0,1,3-.55,4.71,4.71,0,0,1,3.36,1.62A4.58,4.58,0,0,1,201.62,401Z" transform="translate(0 0)"/></g><g class="cls-2"><path class="cls-1" d="M214.36,396.22l-6.6.1,0-1.24,6.6-.11Z" transform="translate(0 0)"/></g><g class="cls-2"><path class="cls-1" d="M230.3,395.7a14.91,14.91,0,0,1,0,2.07,15.19,15.19,0,0,0,0,2.09c-.56.05-1.63.12-3.22.19-.81,0-1.38.08-1.74.11-2.09.19-3.62.38-4.57.56h-.17q-.3,0-.33-.18c0-.15.95-.82,2.89-2a8.44,8.44,0,0,0,2.7-2.61,4.72,4.72,0,0,0,.84-3,2.86,2.86,0,0,0-1-2,2.77,2.77,0,0,0-2.14-.62,2.9,2.9,0,0,0-1.86.8,1.7,1.7,0,0,0-.64,1.26c0,.16.07.26.15.29a5.76,5.76,0,0,0,.9.17c.51.07.79.31.83.73a1,1,0,0,1-.24.76,1,1,0,0,1-.7.37,1.33,1.33,0,0,1-1.08-.43,1.86,1.86,0,0,1-.54-1.2,2.68,2.68,0,0,1,1-2.32,4.79,4.79,0,0,1,2.84-1.17,4.45,4.45,0,0,1,3.25.83,3.39,3.39,0,0,1,1.4,2.41c.12,1.3-.58,2.55-2.1,3.77-.3.24-.84.61-1.62,1.12a15,15,0,0,1-1.54.95c-.12.05-.19.09-.2.12s.15,0,.44,0c1.48-.09,2.77-.19,3.87-.32a2.94,2.94,0,0,0,1.67-.49,3.53,3.53,0,0,0,.38-1.8,2.49,2.49,0,0,1,.08-.6.24.24,0,0,1,.22-.13C230.2,395.41,230.28,395.5,230.3,395.7Z" transform="translate(0 0)"/></g><g class="cls-2"><path class="cls-1" d="M241.94,398.62a4.62,4.62,0,0,1-1.13,3.82,6,6,0,0,1-3.83,2.09,4.48,4.48,0,0,1-2.68-.34,2.08,2.08,0,0,1-1.33-1.58,1.18,1.18,0,0,1,.23-.93,1.3,1.3,0,0,1,.87-.48c.76-.11,1.19.17,1.3.87a1.87,1.87,0,0,1-.5,1.27.33.33,0,0,0-.1.26c0,.15.27.29.73.4a3.69,3.69,0,0,0,1.31.07,3.06,3.06,0,0,0,2.19-1.41,5.48,5.48,0,0,0,.64-3.84A3.8,3.8,0,0,0,238,396a3.07,3.07,0,0,0-2-.28c-.54.08-.82.05-.84-.11s.17-.25.58-.36a4.15,4.15,0,0,0,1.25-.62,2.82,2.82,0,0,0,.91-1,3.65,3.65,0,0,0,.29-2.28,2.75,2.75,0,0,0-1.48-2.18,3,3,0,0,0-1.72-.18,2.8,2.8,0,0,0-1.73.78,1.07,1.07,0,0,0-.39.81c0,.15.24.24.65.26a1,1,0,0,1,.86,1.6,1.08,1.08,0,0,1-.71.4,1.25,1.25,0,0,1-1-.27,1.43,1.43,0,0,1-.55-.95,2.38,2.38,0,0,1,.78-2.15,4.87,4.87,0,0,1,2.68-1.2,5.12,5.12,0,0,1,3.26.43A2.94,2.94,0,0,1,240.3,391a3.15,3.15,0,0,1-.8,2.65,5.65,5.65,0,0,1-2.95,1.67v.07a5.69,5.69,0,0,1,3,.25A3.67,3.67,0,0,1,241.94,398.62Z" transform="translate(0 0)"/></g><g class="cls-2"><path class="cls-1" d="M254.41,390.26a4.84,4.84,0,0,1-1.29,4.51,6.42,6.42,0,0,1-3.4,2.05,5.87,5.87,0,0,1-4.37-.62,5,5,0,0,1-2.52-3.31,5.16,5.16,0,0,1,.14-2.83,5.85,5.85,0,0,1,1.59-2.45,6.85,6.85,0,0,1,3.12-1.65,5.47,5.47,0,0,1,2.25,0,5.26,5.26,0,0,1,2.08.76A5.58,5.58,0,0,1,254.41,390.26Zm-2,.22a5.64,5.64,0,0,0-1.84-3.24,3.35,3.35,0,0,0-3-.71,3.14,3.14,0,0,0-2.29,2,6.41,6.41,0,0,0-.15,3.92,5.09,5.09,0,0,0,2.18,3.36,3,3,0,0,0,2.37.46,3.7,3.7,0,0,0,2.67-2.36A5.76,5.76,0,0,0,252.39,390.48Z" transform="translate(0 0)"/></g><g class="cls-2"><path class="cls-1" d="M267.61,386.15a4.83,4.83,0,0,1-.92,4.6,6.34,6.34,0,0,1-3.22,2.31,5.83,5.83,0,0,1-4.4-.26,5,5,0,0,1-2.79-3.09,5.22,5.22,0,0,1-.09-2.83,5.73,5.73,0,0,1,1.39-2.57,6.86,6.86,0,0,1,3-1.9,5.65,5.65,0,0,1,2.24-.23,5.31,5.31,0,0,1,4.82,4Zm-2,.38a5.68,5.68,0,0,0-2.1-3.08,3.39,3.39,0,0,0-3.08-.46,3.18,3.18,0,0,0-2.11,2.2,6.39,6.39,0,0,0,.17,3.91,5.12,5.12,0,0,0,2.45,3.18,3,3,0,0,0,2.39.27,3.65,3.65,0,0,0,2.47-2.58A5.68,5.68,0,0,0,265.62,386.53Z" transform="translate(0 0)"/></g><g class="cls-2"><path class="cls-1" d="M286.13,383.67c0,.09,0,.15,0,.19l-.51.24-.44.2-3.25,1.41c-.27.11-.42.13-.45.05s.17-.28.64-.53c.28-.16.4-.28.36-.37a2.64,2.64,0,0,0-.79-.42c-.45-.19-2.19-1-5.24-2.34l1.73,4c.15.35.29.54.4.56a2.61,2.61,0,0,0,.91-.27c.16-.07.27,0,.32.07s0,.21-.26.3l-.16.07-2.12.92-1.24.54-.15.07c-.21.09-.33.07-.39,0s.13-.28.57-.45c.29-.13.44-.25.45-.35a3.91,3.91,0,0,0-.35-1l-3.22-7.4a3.32,3.32,0,0,0-.32-.67c-.09-.1-.33-.07-.7.09s-.59.18-.65.05,0-.2.24-.29l.22-.1a2.32,2.32,0,0,0,.35-.12l1.43-.65.94-.38.75-.35c.2-.09.33-.08.38,0s-.17.27-.65.49a1.06,1.06,0,0,0-.39.27c0,.06,0,.19.08.4l1.58,3.64a59.52,59.52,0,0,0,2.4-5.77c0-.07-.35,0-.95.28-.18.08-.29.06-.34-.06a.16.16,0,0,1,.08-.22c.1-.06.47-.23,1.1-.5,1.13-.5,1.8-.78,2-.85s.32-.05.36,0,0,.26-.31.36l-.62.27c-.21.07-.4.31-.58.72-.12.24-.3.64-.53,1.18-.35.82-.88,2-1.61,3.67.28.13,1.29.54,3,1.24l3.75,1.5a6.65,6.65,0,0,0,1.14.38,1.26,1.26,0,0,0,.69-.15C286,383.55,286.08,383.56,286.13,383.67Z" transform="translate(0 0)"/></g><g class="cls-2"><path class="cls-1" d="M294,373.65a5.56,5.56,0,0,1,.5,4.19A4.86,4.86,0,0,1,292,381a5.87,5.87,0,0,1-2.88.66l-.09,1.53a.39.39,0,0,1-.19.37c-.18.1-.31.08-.38-.06a.92.92,0,0,1,0-.43l.08-1.47a6,6,0,0,1-4.59-7.29,5.13,5.13,0,0,1,2.66-3.2,5.58,5.58,0,0,1,2.58-.62l.14-1.86a.27.27,0,0,1,.17-.29c.16-.08.28-.06.35.06a.83.83,0,0,1,0,.39l-.1,1.74A5.63,5.63,0,0,1,294,373.65Zm-4.86-2.17a2.4,2.4,0,0,0-2.39-.05,2.67,2.67,0,0,0-1.35,2.89,9,9,0,0,0,1.1,3.28,8.32,8.32,0,0,0,2.11,2.68Zm2.89,3.26a8.62,8.62,0,0,0-2.33-2.91l-.53,8.84a2.73,2.73,0,0,0,2.67,0,2.36,2.36,0,0,0,1.28-2.19A7.78,7.78,0,0,0,292,374.74Z" transform="translate(0 0)"/></g><g class="cls-2"><path class="cls-1" d="M304.08,370.32a2.36,2.36,0,0,1,.29,2,4.26,4.26,0,0,1-1.4,2,31.37,31.37,0,0,1-3.09,2.07l-1.25.78,0,0-.28.17c-.09.08-.17.06-.24-.05s-.05-.15,0-.19a2.88,2.88,0,0,1,.47-.33c.27-.17.42-.29.42-.37a1.3,1.3,0,0,0-.26-.55l-4.59-7.37a1.87,1.87,0,0,0-.45-.58c-.08,0-.32.06-.72.29s-.47.21-.52.13.05-.26.35-.44l.35-.22,1.23-.71,1-.61c.94-.57,1.55-.92,1.81-1.05a4.28,4.28,0,0,1,1-.37,2.24,2.24,0,0,1,2.63.94c.77,1.24.27,2.56-1.49,4l.06.05a4.6,4.6,0,0,1,2.77-.78A2.52,2.52,0,0,1,304.08,370.32Zm-5.06-3.2c-.55-.9-1.11-1.33-1.65-1.31a2.81,2.81,0,0,0-1.28.52,5.39,5.39,0,0,0-.5.33l-.15.12,2.36,3.78a5.24,5.24,0,0,0,1.37-1.14A2,2,0,0,0,299,367.12Zm3.19,4.16q-1.33-2.16-3.77-.64l-.43.26,2.55,4.08c.1.17.19.25.28.24a2.32,2.32,0,0,0,.62-.32Q303.64,373.55,302.21,371.28Z" transform="translate(0 0)"/></g><g class="cls-2"><path class="cls-1" d="M313.09,364.48l.15.27a4.06,4.06,0,0,0,.26.43l.8,1.13a1.53,1.53,0,0,0,.33.35l-3.31,2.25-3.71,2.7c-.28.2-.45.24-.52.14s0-.23.11-.34c.42-.3.64-.5.67-.61s-.08-.35-.34-.72l-4.76-6.74c-.37-.54-.62-.79-.73-.76a3.51,3.51,0,0,0-.73.43c-.15.12-.26.12-.33,0s0-.21.15-.33l.47-.34.39-.27.22-.15.49-.35,1-.69,2.15-1.52,1.16-.82.85-.59.09.13.23.28c.16.17.62.72,1.38,1.63a1.06,1.06,0,0,1,.18.22c.12.16.13.28,0,.34s-.29,0-.53-.21c-.88-.86-1.64-1.2-2.27-1a11.83,11.83,0,0,0-2.12,1.3l-1,.7,2.59,3.67.46-.33a4.09,4.09,0,0,0,1.4-1.29,2.07,2.07,0,0,0-.41-1.4c-.22-.4-.27-.63-.15-.72s.29,0,.47.26.27.4.48.74.38.6.5.77c.6.85,1,1.42,1.27,1.71a2.7,2.7,0,0,1,.2.25q.21.32,0,.45c-.12.08-.31,0-.58-.33-.58-.65-1-1-1.28-1a4,4,0,0,0-1.68.87l-.48.34,3,4.24a27.93,27.93,0,0,0,3.27-2.54c.41-.51.28-1.35-.41-2.53-.13-.2-.13-.35,0-.44S312.84,364.12,313.09,364.48Z" transform="translate(0 0)"/></g><g class="cls-2"><path class="cls-1" d="M317.31,350.57c.07.08,0,.24-.31.46l-.26.21-.21.17c-.11.09-.15.17-.13.23a3,3,0,0,0,.38.53l5.57,6.9a8.61,8.61,0,0,1,.62.81c0,.08,0,.17-.07.25a7.2,7.2,0,0,1-2.6-.5c-.2-.07-.49-.14-.87-.23l-.43-.12c-1.29-.32-3.68-1-7.16-1.93l4.79,5.94c.38.46.64.66.79.57a5.22,5.22,0,0,0,.76-.54l.07-.06c.15-.12.26-.14.32-.06s0,.25-.29.47l-.65.46-.52.39c-.13.11-.25.21-.36.32a8.2,8.2,0,0,1-.74.66c-.2.16-.34.2-.41.1s0-.21.25-.4l.17-.14.23-.22c.28-.26.39-.45.33-.54a6.36,6.36,0,0,0-.42-.57L312,358.55a6,6,0,0,0-1.54-1.56,1.21,1.21,0,0,0-1.18.33c-.31.26-.51.33-.6.22s0-.19.15-.32l.07-.06,1-.83.25-.2.33-.27.69-.56,9.34,2.52-4.21-5.21a2.8,2.8,0,0,0-.47-.51c-.07,0-.19,0-.36.17l-.4.32-.11.09c-.24.19-.39.24-.47.14s0-.14.1-.24.52-.46,1.25-1,1.09-.87,1.21-1S317.26,350.5,317.31,350.57Z" transform="translate(0 0)"/></g><g class="cls-2"><path class="cls-1" d="M333.3,350.2c.08.08-.06.28-.41.61l-.18.16-.29.28-1.3,1.21-.39.36-.28.26c-.25.26-.41.34-.49.25s0-.2.18-.39c.37-.36.52-.6.46-.72a3.41,3.41,0,0,0-.51-.61l-3-3.21-3.32,3.09,3.37,3.62a.43.43,0,0,0,.38.11,3.54,3.54,0,0,0,.66-.49c.12-.11.23-.13.3-.05s0,.23-.24.45l-.28.26-.72.67-1.72,1.61c-.17.16-.3.2-.38.12s.05-.29.38-.62.32-.45.23-.6L319.64,350q-.47-.48-.51-.51c-.1-.08-.25,0-.45.16-.4.36-.66.48-.76.38s0-.18.15-.34l.14-.13.71-.66.48-.45.72-.66.6-.57.12-.11c.2-.19.35-.23.43-.14s0,.3-.33.57-.3.32-.31.41.07.23.25.43l2.59,2.78,3.32-3.1-2.22-2.38a3.92,3.92,0,0,0-.62-.59c-.15-.12-.32-.07-.5.15l-.33.31c-.17.11-.29.13-.36.05s0-.26.23-.49l.35-.33.68-.63.69-.64.58-.54.24-.23q.42-.39.54-.27c.09.09.05.21-.11.36s-.28.28-.38.39-.21.25-.18.33a3.29,3.29,0,0,0,.49.59l5.66,6.08c.37.4.61.59.7.58a2.33,2.33,0,0,0,.67-.52C333.09,350.13,333.21,350.1,333.3,350.2Z" transform="translate(0 0)"/></g><g class="cls-2"><path class="cls-1" d="M341.86,341.09c.07.07,0,.22-.22.45l-.11.13-1,1.08-.46.49-.77.83-.49.52-.29.32-.08.09c-.2.21-.34.27-.44.18s.05-.34.43-.78.64-.81.53-.91a2.6,2.6,0,0,0-.43-.2c-.11-.07-.62-.29-1.54-.69l-.79-.34-2.33,2.51a15.7,15.7,0,0,0,1.42,2.66c.1.1.23.08.37-.05l.23-.21.24-.26.2-.11c.13-.14.23-.18.3-.11s0,.23-.22.48l-.6.6c-.38.36-.7.69-1,1l-.14.16-.12.18-.16.22,0,0c-.17.19-.3.25-.37.18s-.05-.19.07-.36a4.74,4.74,0,0,0,.36-.45.87.87,0,0,0,.2-.53,17.3,17.3,0,0,0-1.2-2.73c-.34-.69-.66-1.34-.94-1.95a5.21,5.21,0,0,0-.24-.48,3.37,3.37,0,0,1-.23-.49c-.3-.64-.76-1.6-1.4-2.87l-.49-1-.2-.41c-.11-.23-.13-.39-.07-.46a2,2,0,0,1,.7.23q1.77.68,9.3,3.59c.49.19.81.24.95.13s.23-.19.58-.51S341.77,341,341.86,341.09Zm-6.06,1-4-1.66c.43.93,1.07,2.25,1.9,4Z" transform="translate(0 0)"/></g><g class="cls-2"><path class="cls-1" d="M340.8,325.62c.11.09.07.23-.13.42a2.25,2.25,0,0,0-.45.81,1.09,1.09,0,0,0,.19.69l.21.36q1.78,3.19,4.88,8.4c.22.36.3.58.22.68s-.31.08-.67-.05q-2.66-.94-7.5-2.53l-1.89-.64a1.67,1.67,0,0,0-1-.17,3.08,3.08,0,0,0-.84.81c-.11.14-.2.18-.28.11s-.09-.22.05-.39l.59-.72,1-1.23.47-.58.47-.57.43-.52q.39-.48.54-.36c.09.07.07.21-.06.41l-.23.28-.33.41c-.3.39-.41.63-.32.7s1.19.44,3.42,1.19l4,1.39-1.38-2.45-1.42-2.45a10.35,10.35,0,0,0-1.15-1.85c-.12-.1-.27,0-.46.15l-.35.43-.24.29q-.12.15-.24.06c-.13-.11-.05-.35.24-.71l.29-.35.44-.54a4.52,4.52,0,0,0,.39-.36,2.64,2.64,0,0,0,.24-.4l.41-.5,0,0C340.59,325.6,340.71,325.55,340.8,325.62Z" transform="translate(0 0)"/></g><g class="cls-2"><path class="cls-1" d="M347,317c.09.07,0,.24-.17.53l-.2.27-.15.22c-.08.11-.11.2-.07.26a3.56,3.56,0,0,0,.51.4l7.17,5.13c.46.34.73.54.8.61s.07.16,0,.26a7.14,7.14,0,0,1-2.62.21c-.21,0-.5,0-.89,0h-.44c-1.33,0-3.78.05-7.37.05l6.17,4.42c.48.34.78.46.9.34a5.51,5.51,0,0,0,.58-.72l.06-.08c.11-.15.2-.2.29-.14s0,.25-.16.53c0,.05-.2.26-.5.61l-.4.51c-.09.13-.17.27-.25.41a8.21,8.21,0,0,1-.54.82c-.14.21-.27.28-.36.21s0-.21.13-.46l.13-.18.16-.26c.2-.33.25-.54.17-.61a3.84,3.84,0,0,0-.55-.43L344,326.09a5.86,5.86,0,0,0-1.89-1.08,1.21,1.21,0,0,0-1.05.63c-.23.33-.4.45-.51.37s-.07-.18.05-.34l.06-.08.76-1.07.19-.25c.09-.13.17-.25.25-.35l.51-.72,9.6-.07-5.4-3.87a2.43,2.43,0,0,0-.59-.36c-.07,0-.17.07-.3.25l-.29.41-.09.12c-.17.25-.31.33-.41.26s-.05-.13,0-.26.38-.57.92-1.32.81-1.13.9-1.24S346.92,317,347,317Z" transform="translate(0 0)"/></g><g class="cls-2"><path class="cls-1" d="M360.33,309.84a2.88,2.88,0,0,1,1.39,2.16,4.22,4.22,0,0,1-.58,2.88,5.24,5.24,0,0,1-1.92,1.8.58.58,0,0,0-.14.14c-.05.08,0,.17.11.26a2,2,0,0,1,.3.26.25.25,0,0,1-.3.38l-.6-.41c-.37-.25-.69-.46-1-.62l-.52-.31-.53-.31c-.26-.16-.35-.3-.27-.44s.35-.12.82.06c1.67.63,2.91.27,3.71-1.1a1.77,1.77,0,0,0-.71-2.75,2.09,2.09,0,0,0-1.48-.32,6.43,6.43,0,0,0-2,1,9.52,9.52,0,0,1-2.41,1.28,2.44,2.44,0,0,1-1.81-.31,2.76,2.76,0,0,1-1.38-1.93,3.52,3.52,0,0,1,.5-2.52,4.09,4.09,0,0,1,1.46-1.39.58.58,0,0,0,.16-.13c.05-.1,0-.22-.19-.37s-.24-.28-.16-.42a.21.21,0,0,1,.33-.09l.16.12a6.47,6.47,0,0,0,.82.54c.21.12.59.32,1.15.6a.88.88,0,0,1,.2.09c.17.09.22.2.15.31s-.25.14-.53,0a3.14,3.14,0,0,0-1.88-.1,2.18,2.18,0,0,0-1.33,1,1.57,1.57,0,0,0,.71,2.42A2,2,0,0,0,354,312a1.91,1.91,0,0,0,.66-.23c.19-.11.72-.45,1.57-1a7.57,7.57,0,0,1,2.39-1.16A2.36,2.36,0,0,1,360.33,309.84Z" transform="translate(0 0)"/></g></g><g id="Layer_2" data-name="Layer 2"><path class="cls-1" d="M185.07,93.76l-4.89,11-47.65,19.55s-17.72,197.33-15.28,199.77H138l18.32-107.52L162.46,241l-20.77,83.09,59.87,24.44,8.56-45.21,9.77,45.21,58.65-24.44L259,239.77l4.89-23.21,18.33,107.52H303s-12.22-200.39-14.66-199.16l-48.88-20.78-4.89-9.77L210.12,227.55Z" transform="translate(0 0)"/><polygon class="cls-1" points="218.67 104.14 201.56 104.14 207.67 116.36 196.68 128.58 210.12 203.12 223.56 127.36 213.78 116.36 218.67 104.14"/><path class="cls-3" d="M244.33,170.13l18.33-2.45v-8.55s-4.89-4.89-6.11-4.89S244.33,170.13,244.33,170.13Z" transform="translate(0 0)"/></g></svg>
