<?xml version="1.0" encoding="utf-8"?>
<!-- Generator: Adobe Illustrator 22.1.0, SVG Export Plug-In . SVG Version: 6.00 Build 0)  -->
<svg version="1.1" id="Layer_1" xmlns="http://www.w3.org/2000/svg" xmlns:xlink="http://www.w3.org/1999/xlink" x="0px" y="0px"
	 viewBox="0 0 40 40" style="enable-background:new 0 0 40 40;" xml:space="preserve">
<style type="text/css">
	.st0{fill:#004225;}
	.st1{fill:#FFFFFF;}
	.st2{fill:#F9F8F7;}
</style>
<path class="st0" d="M2.9,1.1l33.1-0.7v29.9c0,0-13.5,9.8-15.6,9.4c-2.1-0.4-16.8-8.6-16.8-8.6L2.9,1.1z"/>
<path class="st1" d="M20.6,40c-0.1,0-0.1,0-0.2,0c-2.1-0.4-16.4-8.3-17-8.6l-0.2-0.1L2.5,0.7L36.4,0v30.4l-0.2,0.1
	C34.1,32.2,23.1,40,20.6,40z M4,30.9c5.1,2.8,15,8.1,16.6,8.4c1.4,0.3,10-5.5,15.1-9.2V0.8L3.3,1.5L4,30.9z"/>
<path class="st0" d="M4.3,2.8l30.3-0.6v27.1c0,0-12.4,8.9-14.3,8.5S5,30.1,5,30.1L4.3,2.8z"/>
<path class="st1" d="M20.5,38.1c-0.1,0-0.1,0-0.2,0c-1.9-0.4-14.9-7.5-15.5-7.8l-0.1,0L4.1,2.7L34.9,2v27.4l-0.1,0.1
	C33.5,30.4,22.8,38.1,20.5,38.1z M5.2,30c1.2,0.7,13.5,7.3,15.3,7.7c1.5,0.3,10.6-5.9,14.1-8.5V2.4L4.5,3L5.2,30z"/>
<path class="st2" d="M26.7,23.1c0,1.8-0.7,3.5-2.1,4.6c-1.3,1.3-3.1,1.9-5,1.9c-1.4-0.1-2.8-0.4-4.1-1c-0.3-0.2-0.6-0.2-0.9-0.3
	c-0.3,0-0.4,0.3-0.5,0.9c0,0.3-0.2,0.5-0.4,0.5c-0.3,0-0.3-0.1-0.3-0.4c0-0.1,0-0.3,0-0.4c0.2-1.2,0.2-2.4,0.3-3.6
	c0-0.2,0-0.8-0.1-1.8c0-0.2,0-0.3,0-0.5c0-0.3,0.1-0.5,0.4-0.5c0.3,0,0.4,0.3,0.4,0.8c0.5,3.8,2.3,5.7,5.3,5.7c1.3,0,2.3-0.4,3-1.1
	c0.7-0.7,1.1-1.8,1.1-3.1c0-1.1-0.3-2.2-1-3c-0.7-0.8-1.8-1.7-3.5-2.5c-2-1-3.4-2-4.2-2.9c-0.8-1-1.2-2.2-1.2-3.4
	c-0.1-1.6,0.6-3.2,1.7-4.3C16.8,7.6,18.4,7,20,7c1,0.1,2,0.3,3,0.7c0.3,0.1,0.6,0.2,1,0.3c0.2,0,0.3,0,0.5-0.1
	c0.1-0.2,0.2-0.4,0.2-0.7c0-0.2,0.2-0.3,0.3-0.3c0.2,0,0.3,0.1,0.3,0.4c0,0.1,0,0.3,0,0.4c-0.1,0.6-0.1,1.2-0.1,1.8
	c0,0.8,0,1.6,0.2,2.4l0,0.5c0,0.2-0.1,0.3-0.3,0.3s-0.4-0.2-0.5-0.7c-0.2-1.2-0.8-2.3-1.6-3.1c-0.8-0.8-1.8-1.2-2.9-1.2
	c-0.9,0-1.9,0.3-2.5,1c-0.7,0.8-1,1.7-0.9,2.7c0,1.2,0.4,2.4,1.4,3.3c0.5,0.5,1.6,1.1,3.3,2c2,1,3.4,2,4.3,3
	C26.3,20.6,26.8,21.8,26.7,23.1z"/>
</svg>
